<?xml version="1.0" standalone="no"?>
<!DOCTYPE svg PUBLIC "-//W3C//DTD SVG 20010904//EN"
 "http://www.w3.org/TR/2001/REC-SVG-20010904/DTD/svg10.dtd">
<svg version="1.0" xmlns="http://www.w3.org/2000/svg"
 width="623.000000pt" height="623.000000pt" viewBox="0 0 623.000000 623.000000"
 preserveAspectRatio="xMidYMid meet">
<metadata>
Created by potrace 1.11, written by Peter Selinger 2001-2013
</metadata>
<g transform="translate(0.000000,623.000000) scale(0.100000,-0.100000)"
fill="#000000" stroke="none">
<path d="M3848 6165 c-2 -1 -55 -6 -118 -9 -63 -4 -131 -9 -150 -11 -19 -1
-84 -6 -145 -10 -60 -4 -130 -9 -155 -11 -25 -2 -79 -6 -120 -9 -41 -3 -109
-8 -150 -11 -41 -3 -100 -8 -130 -10 -201 -12 -277 -20 -312 -30 -9 -3 -25 -7
-35 -9 -33 -8 -118 -38 -123 -44 -3 -3 -12 -10 -21 -16 -9 -5 -34 -22 -55 -36
-36 -24 -184 -84 -184 -74 0 2 -14 0 -31 -5 -17 -5 -66 -12 -108 -15 -240 -17
-439 -34 -469 -40 -139 -26 -304 -118 -388 -214 -35 -40 -97 -148 -121 -214
-23 -58 -36 -150 -58 -387 -3 -36 -8 -83 -10 -105 -2 -22 -7 -73 -10 -113 -4
-40 -8 -82 -10 -93 -2 -10 -7 -57 -10 -104 -6 -78 -10 -112 -15 -125 -1 -3 -2
-9 -1 -13 3 -17 -33 -134 -60 -194 -15 -35 -26 -63 -23 -63 4 0 -65 -112 -75
-120 -12 -10 -71 -98 -71 -106 0 -4 -7 -15 -15 -23 -27 -31 -133 -256 -170
-361 -20 -58 -37 -126 -38 -152 -1 -27 -4 -48 -7 -48 -6 0 -4 -159 3 -215 3
-22 10 -51 15 -65 5 -14 10 -29 10 -35 1 -5 6 -31 12 -56 6 -26 13 -53 14 -60
2 -8 5 -21 9 -29 3 -8 51 -199 107 -425 105 -423 126 -485 201 -595 45 -65 92
-116 177 -190 35 -30 74 -64 86 -75 12 -11 53 -47 91 -80 37 -33 81 -71 96
-85 32 -28 97 -84 184 -160 101 -87 160 -155 194 -227 62 -125 63 -130 75
-606 6 -196 15 -234 75 -293 52 -52 94 -66 212 -72 113 -5 162 5 210 41 33 24
69 72 74 98 2 10 6 23 9 27 3 5 8 37 11 73 8 90 26 162 46 184 5 5 9 15 9 22
0 25 74 129 129 181 199 189 208 199 219 241 20 80 -20 146 -117 195 -25 13
-120 68 -211 121 -91 54 -180 106 -198 116 -210 120 -665 426 -749 503 -122
113 -135 131 -204 275 -38 79 -69 145 -69 146 0 2 -15 36 -34 77 -99 215 -162
456 -172 653 -14 266 46 475 194 683 42 59 303 331 382 398 199 168 354 257
460 262 39 2 52 -3 94 -35 74 -56 107 -120 114 -216 7 -106 21 -117 140 -113
48 2 96 6 107 9 11 3 41 10 67 16 41 10 168 53 316 109 81 31 203 100 235 133
l28 30 -21 29 c-23 33 -50 92 -57 130 -19 87 10 220 47 220 24 0 83 -51 109
-93 94 -154 124 -514 60 -724 -40 -131 -106 -220 -214 -289 -120 -76 -394
-203 -494 -230 -207 -55 -233 -58 -335 -39 -57 10 -143 50 -190 89 -60 49 -84
59 -122 52 -36 -7 -69 -45 -84 -95 -12 -42 7 -104 44 -144 69 -75 147 -114
321 -159 61 -15 115 -30 120 -31 6 -2 37 -11 70 -21 33 -10 74 -23 90 -30 17
-7 48 -18 70 -25 22 -7 59 -21 82 -32 24 -10 49 -19 56 -19 7 0 21 -6 32 -14
11 -7 31 -17 45 -21 36 -10 209 -85 396 -171 194 -89 246 -95 243 -28 -6 168
-2 565 6 589 22 68 64 98 129 95 68 -3 82 -1 128 14 23 8 54 17 68 19 14 3 45
11 70 18 25 7 50 13 56 15 5 1 48 12 95 24 46 12 107 24 134 26 274 22 421 28
650 29 255 0 334 -7 367 -35 21 -17 23 -26 23 -117 -1 -94 -10 -240 -19 -293
-4 -26 -18 -130 -21 -165 -1 -11 -5 -38 -9 -60 -4 -22 -9 -53 -12 -70 -12 -77
-38 -182 -50 -206 -7 -14 -68 -77 -135 -140 -317 -296 -423 -407 -464 -488
-17 -34 -20 -58 -30 -276 -4 -71 -8 -164 -10 -205 -2 -41 -6 -138 -10 -215 -3
-77 -7 -174 -10 -215 -4 -74 -14 -262 -20 -390 -2 -36 -6 -130 -10 -210 -14
-252 -7 -292 58 -352 60 -55 98 -64 287 -68 117 -2 186 35 231 123 22 42 26
80 34 317 3 91 7 219 10 285 2 66 7 201 10 300 9 269 12 326 20 372 3 24 7 46
7 50 0 5 3 13 7 18 5 6 11 23 15 39 15 63 75 170 135 241 14 17 42 51 61 75
19 23 90 110 158 193 68 82 138 172 156 201 57 89 131 258 142 321 2 11 12 62
23 114 11 52 23 119 26 150 3 31 8 72 10 91 7 51 15 247 30 700 3 85 8 218 10
295 8 201 15 421 19 567 2 69 5 130 7 135 7 14 3 195 -5 241 -12 70 -54 176
-94 234 -16 24 -80 95 -208 234 -303 324 -342 358 -487 430 -48 23 -89 42 -90
42 -1 -1 -13 2 -27 6 -14 4 -34 9 -45 11 -11 2 -56 13 -100 25 -44 12 -89 23
-100 25 -97 15 -277 104 -359 177 -65 57 -132 93 -213 112 -52 12 -176 19
-185 11z m-166 -621 c33 -3 64 -7 68 -9 4 -3 25 -7 46 -11 123 -19 244 -112
309 -237 24 -47 25 -51 20 -230 -5 -187 -9 -331 -20 -617 -3 -91 -8 -226 -10
-300 -3 -74 -8 -148 -12 -165 -4 -16 -7 -32 -8 -35 -5 -29 -49 -95 -90 -136
-54 -54 -120 -86 -210 -99 -48 -8 -123 -9 -155 -2 -34 6 -90 47 -107 79 -18
35 -18 33 -12 338 3 162 -8 374 -25 520 -4 25 -8 68 -11 95 -2 28 -7 66 -9 85
-3 19 -8 55 -11 80 -7 61 -14 118 -20 152 -7 38 -13 76 -20 118 -3 19 -7 46
-10 60 -5 28 -11 65 -20 125 -3 23 -8 52 -10 65 -14 68 -14 78 -2 88 17 14 90
30 169 38 35 3 65 8 67 10 2 2 8 1 13 -2 5 -3 36 -8 70 -10z m-719 -57 c114
-30 138 -60 164 -197 2 -14 8 -43 13 -65 20 -84 2 -205 -29 -205 -6 0 -11 -6
-11 -13 0 -15 -119 -63 -175 -70 -43 -5 -225 -35 -265 -43 -14 -3 -50 -8 -81
-11 -73 -7 -119 20 -155 93 -30 61 -35 87 -36 179 -3 185 53 277 197 321 28 8
68 18 90 20 22 3 41 7 42 8 9 9 198 -4 246 -17z m1781 -106 c43 -24 69 -46
168 -140 60 -57 87 -92 113 -145 36 -75 78 -210 89 -286 3 -25 8 -58 11 -75
33 -211 39 -550 11 -692 -6 -30 -25 -63 -36 -63 -5 0 -21 -5 -37 -11 -15 -7
-38 -13 -50 -15 -12 -1 -57 -10 -100 -18 -161 -32 -368 -39 -418 -15 l-30 14
3 540 c3 507 6 659 14 695 17 70 76 154 142 201 46 34 73 36 120 10z m-2604
-115 c42 -10 63 -31 79 -77 21 -63 28 -205 17 -311 -5 -46 -36 -128 -48 -128
-5 0 -7 -4 -4 -9 9 -14 -108 -128 -147 -145 -32 -13 -59 -18 -167 -32 -25 -3
-56 -7 -70 -10 -140 -25 -200 -22 -253 13 -40 27 -75 75 -82 110 -2 10 -4 18
-5 18 -6 0 -14 166 -14 290 0 217 9 236 120 249 27 3 85 10 129 15 44 6 116
13 160 17 44 3 81 7 82 8 6 5 173 -2 203 -8z"/>
</g>
</svg>
